<svg width="55" height="63" viewBox="0 0 55 63" fill="none" xmlns="http://www.w3.org/2000/svg">
<path fill-rule="evenodd" clip-rule="evenodd" d="M0.966938 5.40077C0.966938 1.58132 5.98222 -0.633391 9.57953 0.859117C13.7005 3.60287 48.7442 23.6311 51.9139 26.3049C55.0835 28.9786 55.9924 33.2239 51.6985 36.3813C47.4049 39.5384 13.2778 59.9217 9.57953 61.6918C5.88049 63.4615 1.12106 61.0536 0.966938 56.5742C0.812812 52.0947 0.966938 9.21982 0.966938 5.40077ZM6.14443 8.71658C6.14443 9.69177 6.11515 52.8435 6.06121 53.7311C5.97258 55.1868 7.21716 56.6496 8.95108 55.782C10.685 54.9139 46.5279 33.2188 47.9513 32.6569C49.375 32.0946 49.2806 30.6627 47.9513 29.7681C46.6223 28.8734 10.1259 7.68351 9.05858 6.7529C7.99126 5.82189 6.14443 7.21899 6.14443 8.71658Z" fill="#121212"/>
</svg>
